<svg width="75" height="62" viewBox="0 0 75 62" fill="none" xmlns="http://www.w3.org/2000/svg">
<mask id="path-1-inside-1_372_12" fill="white">
<path d="M74.4432 29.244L64.804 10.5678C64.6569 10.2902 64.4257 10.0618 64.142 9.92478L44.3312 0.152719C44.051 0.0156781 43.7322 -0.0300012 43.424 0.0191929L24.1771 3.28709C23.9109 3.33277 23.6517 3.42061 23.4135 3.54711L11.0703 10.1497C10.8111 10.2902 10.5834 10.4835 10.4083 10.7224L0.341736 24.2684C0.0229973 24.6971 -0.0785792 25.2452 0.0615258 25.7618L4.20163 40.8327C4.32772 41.286 4.72002 41.6128 5.18937 41.648L18.2261 42.6354C18.5169 42.6564 18.7831 42.8146 18.9407 43.0605L22.8321 49.006C23.0107 49.2766 23.2664 49.4839 23.5676 49.5963L34.2927 53.6619C34.5308 53.7532 34.7935 53.7638 35.0387 53.69L43.6132 51.4025C43.8653 51.3287 44.1385 51.4165 44.3032 51.6273L50.9722 60.6826C51.424 61.2659 52.3067 61.2413 52.727 60.6369L55.6377 56.357C55.8268 56.0689 56.093 55.837 56.4047 55.6859L62.9196 52.555C63.1158 52.4601 63.2804 52.3055 63.382 52.1123L67.0807 45.2145C67.1788 45.0353 67.3294 44.8913 67.5151 44.8069L70.4748 43.6509C70.7024 43.549 70.8741 43.3487 70.9406 43.1062L74.5658 30.4001C74.6744 30.01 74.6289 29.5954 74.4397 29.2405L74.4432 29.244ZM64.6079 14.4928L70.8215 27.0795C70.8881 27.213 70.9406 27.3571 70.9616 27.5082C71.0527 28.1371 70.6919 28.5904 69.9879 28.5869L55.7462 27.6101C55.0212 27.5609 54.6254 26.7421 55.0317 26.1378L62.9862 14.3769C63.389 13.7795 64.2891 13.8392 64.6079 14.4893V14.4928ZM27.9809 4.59073L42.3242 2.09237C42.9862 1.97642 43.6692 2.0748 44.2716 2.37348L61.0667 10.7084C61.8548 11.1019 62.1245 12.0964 61.6377 12.8343L52.8986 26.0921C52.4888 26.714 51.6272 26.8335 51.0632 26.3486L27.5676 6.09115C27.0177 5.61678 27.2664 4.71372 27.9809 4.58722V4.59073ZM25.3119 9.17633C25.403 8.3576 26.3662 7.96404 27.0037 8.48761L48.8531 26.8159C49.466 27.3184 49.3154 28.3023 48.5764 28.5939L23.6412 38.4785C22.9126 38.7666 22.1386 38.1728 22.2261 37.3927L25.3084 9.17633H25.3119ZM13.6412 40.3549L6.94068 40.014C6.49585 39.9824 6.06502 39.5853 5.89339 39.0793L3.70075 31.2715C3.55715 30.263 4.75154 29.6305 5.5011 30.3157L14.3943 38.4644C15.1368 39.1426 14.643 40.3795 13.6412 40.3549ZM18.2927 39.118L3.40653 25.9691C2.75504 25.3928 2.64996 24.4089 3.16485 23.7097L11.2419 12.7324C11.6132 12.2299 12.0965 11.8188 12.6535 11.5376L22.2226 6.67445C22.8846 6.33712 23.6482 6.88177 23.5571 7.61617L19.6552 38.6014C19.5711 39.2585 18.7901 39.5572 18.2927 39.118ZM34.769 50.784C34.4958 51.167 33.9984 51.3216 33.5571 51.1565L25.6797 48.2224C24.8111 47.8991 24.079 47.2912 23.6027 46.4936L21.2629 42.5932C20.9652 42.0977 21.1859 41.4512 21.7253 41.2439L46.4748 31.6299C47.2944 31.3102 48.023 32.2554 47.5116 32.9722L34.7725 50.784H34.769ZM44.6289 48.8092L40.2016 50.2675C39.2909 50.5662 38.5308 49.5225 39.0913 48.746L50.4888 32.9125C50.8846 32.3292 51.7813 32.5189 51.9144 33.2077L53.7182 42.66C53.8093 43.1308 53.5921 43.6087 53.1788 43.8512L45.0072 48.6476C44.8881 48.7179 44.7585 48.7706 44.6219 48.8092H44.6289ZM53.7848 55.9283L52.7165 57.5412C52.3102 58.1526 51.417 58.1596 51.0037 57.5552L46.6149 51.1495C46.3067 50.6997 46.4363 50.0813 46.8986 49.7966L52.7165 46.5322C53.2068 46.2546 53.8198 46.585 53.8618 47.1507L54.3522 53.7567C54.4082 54.5228 54.2086 55.2853 53.7848 55.9283ZM64.1035 46.2582L62.0334 50.5275C61.9144 50.7735 61.7217 50.9808 61.4835 51.1143L57.5221 52.924C56.9652 53.2367 56.2751 52.8537 56.2436 52.2142L55.9634 45.956C55.9354 45.4008 56.3767 44.9405 56.9301 44.9405L63.5186 45.2356C64.0405 45.2356 64.3697 45.8049 64.107 46.2582H64.1035ZM71.7707 31.8267L69.2979 41.4723C69.2138 41.7956 68.9897 42.0626 68.6849 42.2032L66.9476 43.0008C66.6044 43.1589 66.2331 43.2397 65.8548 43.2397H56.4818C56.086 43.2397 55.7497 42.9551 55.6902 42.5721L53.7568 30.632C53.6727 30.1049 54.1035 29.6376 54.6394 29.6692L70.9441 30.6988C71.5151 30.7339 71.9144 31.275 71.7742 31.8267H71.7707Z"/>
</mask>
<path d="M74.4432 29.244L64.804 10.5678C64.6569 10.2902 64.4257 10.0618 64.142 9.92478L44.3312 0.152719C44.051 0.0156781 43.7322 -0.0300012 43.424 0.0191929L24.1771 3.28709C23.9109 3.33277 23.6517 3.42061 23.4135 3.54711L11.0703 10.1497C10.8111 10.2902 10.5834 10.4835 10.4083 10.7224L0.341736 24.2684C0.0229973 24.6971 -0.0785792 25.2452 0.0615258 25.7618L4.20163 40.8327C4.32772 41.286 4.72002 41.6128 5.18937 41.648L18.2261 42.6354C18.5169 42.6564 18.7831 42.8146 18.9407 43.0605L22.8321 49.006C23.0107 49.2766 23.2664 49.4839 23.5676 49.5963L34.2927 53.6619C34.5308 53.7532 34.7935 53.7638 35.0387 53.69L43.6132 51.4025C43.8653 51.3287 44.1385 51.4165 44.3032 51.6273L50.9722 60.6826C51.424 61.2659 52.3067 61.2413 52.727 60.6369L55.6377 56.357C55.8268 56.0689 56.093 55.837 56.4047 55.6859L62.9196 52.555C63.1158 52.4601 63.2804 52.3055 63.382 52.1123L67.0807 45.2145C67.1788 45.0353 67.3294 44.8913 67.5151 44.8069L70.4748 43.6509C70.7024 43.549 70.8741 43.3487 70.9406 43.1062L74.5658 30.4001C74.6744 30.01 74.6289 29.5954 74.4397 29.2405L74.4432 29.244ZM64.6079 14.4928L70.8215 27.0795C70.8881 27.213 70.9406 27.3571 70.9616 27.5082C71.0527 28.1371 70.6919 28.5904 69.9879 28.5869L55.7462 27.6101C55.0212 27.5609 54.6254 26.7421 55.0317 26.1378L62.9862 14.3769C63.389 13.7795 64.2891 13.8392 64.6079 14.4893V14.4928ZM27.9809 4.59073L42.3242 2.09237C42.9862 1.97642 43.6692 2.0748 44.2716 2.37348L61.0667 10.7084C61.8548 11.1019 62.1245 12.0964 61.6377 12.8343L52.8986 26.0921C52.4888 26.714 51.6272 26.8335 51.0632 26.3486L27.5676 6.09115C27.0177 5.61678 27.2664 4.71372 27.9809 4.58722V4.59073ZM25.3119 9.17633C25.403 8.3576 26.3662 7.96404 27.0037 8.48761L48.8531 26.8159C49.466 27.3184 49.3154 28.3023 48.5764 28.5939L23.6412 38.4785C22.9126 38.7666 22.1386 38.1728 22.2261 37.3927L25.3084 9.17633H25.3119ZM13.6412 40.3549L6.94068 40.014C6.49585 39.9824 6.06502 39.5853 5.89339 39.0793L3.70075 31.2715C3.55715 30.263 4.75154 29.6305 5.5011 30.3157L14.3943 38.4644C15.1368 39.1426 14.643 40.3795 13.6412 40.3549ZM18.2927 39.118L3.40653 25.9691C2.75504 25.3928 2.64996 24.4089 3.16485 23.7097L11.2419 12.7324C11.6132 12.2299 12.0965 11.8188 12.6535 11.5376L22.2226 6.67445C22.8846 6.33712 23.6482 6.88177 23.5571 7.61617L19.6552 38.6014C19.5711 39.2585 18.7901 39.5572 18.2927 39.118ZM34.769 50.784C34.4958 51.167 33.9984 51.3216 33.5571 51.1565L25.6797 48.2224C24.8111 47.8991 24.079 47.2912 23.6027 46.4936L21.2629 42.5932C20.9652 42.0977 21.1859 41.4512 21.7253 41.2439L46.4748 31.6299C47.2944 31.3102 48.023 32.2554 47.5116 32.9722L34.7725 50.784H34.769ZM44.6289 48.8092L40.2016 50.2675C39.2909 50.5662 38.5308 49.5225 39.0913 48.746L50.4888 32.9125C50.8846 32.3292 51.7813 32.5189 51.9144 33.2077L53.7182 42.66C53.8093 43.1308 53.5921 43.6087 53.1788 43.8512L45.0072 48.6476C44.8881 48.7179 44.7585 48.7706 44.6219 48.8092H44.6289ZM53.7848 55.9283L52.7165 57.5412C52.3102 58.1526 51.417 58.1596 51.0037 57.5552L46.6149 51.1495C46.3067 50.6997 46.4363 50.0813 46.8986 49.7966L52.7165 46.5322C53.2068 46.2546 53.8198 46.585 53.8618 47.1507L54.3522 53.7567C54.4082 54.5228 54.2086 55.2853 53.7848 55.9283ZM64.1035 46.2582L62.0334 50.5275C61.9144 50.7735 61.7217 50.9808 61.4835 51.1143L57.5221 52.924C56.9652 53.2367 56.2751 52.8537 56.2436 52.2142L55.9634 45.956C55.9354 45.4008 56.3767 44.9405 56.9301 44.9405L63.5186 45.2356C64.0405 45.2356 64.3697 45.8049 64.107 46.2582H64.1035ZM71.7707 31.8267L69.2979 41.4723C69.2138 41.7956 68.9897 42.0626 68.6849 42.2032L66.9476 43.0008C66.6044 43.1589 66.2331 43.2397 65.8548 43.2397H56.4818C56.086 43.2397 55.7497 42.9551 55.6902 42.5721L53.7568 30.632C53.6727 30.1049 54.1035 29.6376 54.6394 29.6692L70.9441 30.6988C71.5151 30.7339 71.9144 31.275 71.7742 31.8267H71.7707Z" fill="white" stroke="black" stroke-width="8" mask="url(#path-1-inside-1_372_12)"/>
</svg>
